<svg width="48" height="48" viewBox="0 0 48 48" fill="none" xmlns="http://www.w3.org/2000/svg">
<path d="M39.14 10.88C40.9732 12.7205 42.0024 15.2123 42.0024 17.81C42.0024 20.4077 40.9732 22.8995 39.14 24.74L24 40L8.85997 24.74C7.49846 23.3693 6.57152 21.6274 6.19519 19.7325C5.81886 17.8375 6.00986 15.8736 6.74428 14.0867C7.4787 12.2997 8.7239 10.7691 10.324 9.68643C11.9241 8.60376 13.8081 8.01714 15.74 8C18.3233 8.01567 20.7959 9.05072 22.62 10.88C23.152 11.4064 23.6156 11.9978 24 12.64C24.3843 11.9978 24.848 11.4064 25.38 10.88C26.2787 9.96811 27.3498 9.24399 28.5309 8.74973C29.712 8.25547 30.9796 8.00094 32.26 8.00094C33.5403 8.00094 34.8079 8.25547 35.989 8.74973C37.1701 9.24399 38.2412 9.96811 39.14 10.88Z" fill="black" stroke="black" stroke-width="4" stroke-linecap="round" stroke-linejoin="round"/>
</svg>
