<svg width="48" height="48" viewBox="0 0 48 48" fill="none" xmlns="http://www.w3.org/2000/svg">
<g clip-path="url(#clip0)">
<path d="M34.096 31.832C34.096 34.872 32.992 37.24 30.784 38.936C28.576 40.632 25.6 41.48 21.856 41.48C19.936 41.48 18.16 41.336 16.528 41.048C14.896 40.76 13.536 40.36 12.448 39.848V35.72C13.6 36.232 15.024 36.696 16.72 37.112C18.448 37.528 20.224 37.736 22.048 37.736C24.608 37.736 26.528 37.24 27.808 36.248C29.12 35.256 29.776 33.912 29.776 32.216C29.776 31.096 29.536 30.152 29.056 29.384C28.576 28.616 27.744 27.912 26.56 27.272C25.408 26.6 23.792 25.896 21.712 25.16C18.8 24.104 16.592 22.808 15.088 21.272C13.616 19.736 12.88 17.64 12.88 14.984C12.88 13.16 13.344 11.608 14.272 10.328C15.2 9.016 16.48 8.008 18.112 7.304C19.776 6.6 21.68 6.248 23.824 6.248C25.712 6.248 27.44 6.424 29.008 6.776C30.576 7.128 32 7.592 33.28 8.168L31.936 11.864C30.752 11.352 29.456 10.92 28.048 10.568C26.672 10.216 25.232 10.04 23.728 10.04C21.584 10.04 19.968 10.504 18.88 11.432C17.792 12.328 17.248 13.528 17.248 15.032C17.248 16.184 17.488 17.144 17.968 17.912C18.448 18.68 19.232 19.368 20.32 19.976C21.408 20.584 22.88 21.24 24.736 21.944C26.752 22.68 28.448 23.48 29.824 24.344C31.232 25.176 32.288 26.184 32.992 27.368C33.728 28.552 34.096 30.04 34.096 31.832Z" fill="black"/>
<line x1="6" y1="23.5" x2="41" y2="23.5" stroke="black" stroke-width="5"/>
</g>
<defs>
<clipPath id="clip0">
<rect width="48" height="48" fill="white"/>
</clipPath>
</defs>
</svg>
