<svg width="48" height="48" viewBox="0 0 48 48" fill="none" xmlns="http://www.w3.org/2000/svg">
<g clip-path="url(#clip0)">
<path d="M9.262 42V36.954H14.482V12.884H9.262V7.838H24.342C28.6727 7.838 31.9787 8.63066 34.26 10.216C36.5413 11.7627 37.682 13.986 37.682 16.886C37.682 18.5487 37.276 20.0567 36.464 21.41C35.652 22.7247 34.5113 23.7493 33.042 24.484C34.7433 25.0253 36.116 26.0113 37.16 27.442C38.2427 28.834 38.784 30.574 38.784 32.662C38.784 35.4847 37.8173 37.7467 35.884 39.448C33.9893 41.1493 31.1087 42 27.242 42H9.262ZM20.282 22.57H26.952C28.46 22.57 29.6007 22.1447 30.374 21.294C31.186 20.4433 31.592 19.264 31.592 17.756C31.592 14.508 29.388 12.884 24.98 12.884H20.282V22.57ZM20.224 36.954H26.546C30.6447 36.954 32.694 35.2527 32.694 31.85C32.694 30.3033 32.1913 29.124 31.186 28.312C30.1807 27.4613 28.75 27.036 26.894 27.036H20.282L20.224 36.954Z" fill="black"/>
</g>
<defs>
<clipPath id="clip0">
<rect width="48" height="48" fill="white"/>
</clipPath>
</defs>
</svg>
