<svg width="64" height="64" viewBox="0 0 64 64" fill="none" xmlns="http://www.w3.org/2000/svg">
<path d="M8 29.3333C14 29.3333 14 34.6667 20 34.6667C26 34.6667 26 29.3333 32 29.3333C38 29.3333 38.0267 34.6667 44.0267 34.6667C50.0267 34.6667 50.0267 29.3333 56.0267 29.3333" stroke="black" stroke-width="5.33333" stroke-linecap="round" stroke-linejoin="round"/>
<path d="M8 46C14 46 14 51.3333 20 51.3333C26 51.3333 26 46 32 46C38 46 38.0267 51.3333 44.0267 51.3333C50.0267 51.3333 50.0267 46 56.0267 46" stroke="black" stroke-width="5.33333" stroke-linecap="round" stroke-linejoin="round"/>
<path d="M8 13C14 13 14 18.3333 20 18.3333C26 18.3333 26 13 32 13C38 13 38.0267 18.3333 44.0267 18.3333C50.0267 18.3333 50.0267 13 56.0267 13" stroke="black" stroke-width="5.33333" stroke-linecap="round" stroke-linejoin="round"/>
</svg>
