<svg width="48" height="48" viewBox="0 0 48 48" fill="none" xmlns="http://www.w3.org/2000/svg">
<g clip-path="url(#clip0)">
<path d="M24.75 12.4L24.9 11.25C24.9 10.7167 24.6667 10.3167 24.2 10.05C23.7667 9.78333 22.8667 9.53333 21.5 9.3L21.8 7.35H34.4L34.25 9.3L31.05 9.9C30.35 10.0333 29.9333 10.4667 29.8 11.2L25.25 36.9C25.15 37.4333 25.1 37.8667 25.1 38.2C25.1 38.9667 25.55 39.4333 26.45 39.6L28.8 40.05L28.55 42H16.1V40.05C17.9 39.75 19.0167 39.4167 19.45 39.05C19.8833 38.6833 20.2 37.9833 20.4 36.95L24.75 12.4Z" fill="black"/>
</g>
<defs>
<clipPath id="clip0">
<rect width="48" height="48" fill="white"/>
</clipPath>
</defs>
</svg>
