<svg width="48" height="48" viewBox="0 0 48 48" fill="none" xmlns="http://www.w3.org/2000/svg">
<path d="M36.7199 23.404C36.7199 25.772 36.2399 27.916 35.2799 29.836C34.3199 31.724 32.8479 33.228 30.8639 34.348C28.9119 35.436 26.4159 35.98 23.3759 35.98C19.1199 35.98 15.8719 34.828 13.6319 32.524C11.4239 30.188 10.3199 27.116 10.3199 23.308V6H14.6399V23.452C14.6399 26.236 15.3759 28.396 16.8479 29.932C18.3519 31.468 20.6079 32.236 23.6159 32.236C26.7199 32.236 28.9599 31.42 30.3359 29.788C31.7439 28.124 32.4479 25.996 32.4479 23.404V6H36.7199V23.404Z" fill="black"/>
<line x1="6" y1="40.5" x2="41" y2="40.5" stroke="black" stroke-width="4"/>
</svg>
