<svg class="icon line" width="48" height="48" id="package-alt2" xmlns="http://www.w3.org/2000/svg" viewBox="0 0 24 24"><path d="M3,8H21a0,0,0,0,1,0,0V20a1,1,0,0,1-1,1H4a1,1,0,0,1-1-1V8A0,0,0,0,1,3,8Z" style="fill: none; stroke: rgb(0, 0, 0); stroke-linecap: round; stroke-linejoin: round; stroke-width: 2;"></path><path d="M3,8,7.71,3.29A1,1,0,0,1,8.41,3h7.18a1,1,0,0,1,.7.29L21,8" style="fill: none; stroke: rgb(0, 0, 0); stroke-linecap: round; stroke-linejoin: round; stroke-width: 2;"></path><line x1="12" y1="3" x2="12" y2="13" style="fill: none; stroke: rgb(0, 0, 0); stroke-linecap: round; stroke-linejoin: round; stroke-width: 2;"></line></svg>